<mxfile host="app.diagrams.net" modified="2024-07-15T23:26:06.813Z" agent="Mozilla/5.0 (Windows NT 10.0; Win64; x64) AppleWebKit/537.36 (KHTML, like Gecko) Chrome/126.0.0.0 Safari/537.36" etag="_FlcCzstNFLYdo8QSVg-" version="24.6.5" type="github">
  <diagram name="Página-1" id="H3_lEohYFaxnhVR2pmjb">
    <mxGraphModel dx="1050" dy="522" grid="1" gridSize="10" guides="1" tooltips="1" connect="1" arrows="1" fold="1" page="1" pageScale="1" pageWidth="827" pageHeight="1169" math="0" shadow="0">
      <root>
        <mxCell id="0" />
        <mxCell id="1" parent="0" />
        <mxCell id="Rn2rzYz6gc9uE2lievjr-1" value="" style="rounded=1;whiteSpace=wrap;html=1;" vertex="1" parent="1">
          <mxGeometry x="384" y="20" width="60" height="60" as="geometry" />
        </mxCell>
        <mxCell id="Rn2rzYz6gc9uE2lievjr-18" style="edgeStyle=orthogonalEdgeStyle;rounded=0;orthogonalLoop=1;jettySize=auto;html=1;exitX=0;exitY=0.75;exitDx=0;exitDy=0;entryX=0.5;entryY=0;entryDx=0;entryDy=0;" edge="1" parent="1" source="Rn2rzYz6gc9uE2lievjr-2" target="Rn2rzYz6gc9uE2lievjr-3">
          <mxGeometry relative="1" as="geometry" />
        </mxCell>
        <mxCell id="Rn2rzYz6gc9uE2lievjr-2" value="18" style="text;html=1;align=center;verticalAlign=middle;whiteSpace=wrap;rounded=0;" vertex="1" parent="1">
          <mxGeometry x="380" y="35" width="60" height="30" as="geometry" />
        </mxCell>
        <mxCell id="Rn2rzYz6gc9uE2lievjr-3" value="" style="rounded=1;whiteSpace=wrap;html=1;" vertex="1" parent="1">
          <mxGeometry x="300" y="120" width="60" height="60" as="geometry" />
        </mxCell>
        <mxCell id="Rn2rzYz6gc9uE2lievjr-19" style="edgeStyle=orthogonalEdgeStyle;rounded=0;orthogonalLoop=1;jettySize=auto;html=1;exitX=1;exitY=0.5;exitDx=0;exitDy=0;entryX=0.5;entryY=0;entryDx=0;entryDy=0;" edge="1" parent="1" source="Rn2rzYz6gc9uE2lievjr-4" target="Rn2rzYz6gc9uE2lievjr-5">
          <mxGeometry relative="1" as="geometry">
            <Array as="points">
              <mxPoint x="360" y="140" />
              <mxPoint x="414" y="140" />
            </Array>
          </mxGeometry>
        </mxCell>
        <mxCell id="Rn2rzYz6gc9uE2lievjr-20" style="edgeStyle=orthogonalEdgeStyle;rounded=0;orthogonalLoop=1;jettySize=auto;html=1;exitX=0;exitY=0.25;exitDx=0;exitDy=0;" edge="1" parent="1" source="Rn2rzYz6gc9uE2lievjr-4" target="Rn2rzYz6gc9uE2lievjr-7">
          <mxGeometry relative="1" as="geometry" />
        </mxCell>
        <mxCell id="Rn2rzYz6gc9uE2lievjr-4" value="8" style="text;html=1;align=center;verticalAlign=middle;whiteSpace=wrap;rounded=0;" vertex="1" parent="1">
          <mxGeometry x="300" y="135" width="60" height="30" as="geometry" />
        </mxCell>
        <mxCell id="Rn2rzYz6gc9uE2lievjr-5" value="" style="rounded=1;whiteSpace=wrap;html=1;" vertex="1" parent="1">
          <mxGeometry x="384" y="200" width="60" height="60" as="geometry" />
        </mxCell>
        <mxCell id="Rn2rzYz6gc9uE2lievjr-21" style="edgeStyle=orthogonalEdgeStyle;rounded=0;orthogonalLoop=1;jettySize=auto;html=1;exitX=1;exitY=0.5;exitDx=0;exitDy=0;entryX=0.5;entryY=0;entryDx=0;entryDy=0;" edge="1" parent="1" source="Rn2rzYz6gc9uE2lievjr-6" target="Rn2rzYz6gc9uE2lievjr-11">
          <mxGeometry relative="1" as="geometry" />
        </mxCell>
        <mxCell id="Rn2rzYz6gc9uE2lievjr-22" style="edgeStyle=orthogonalEdgeStyle;rounded=0;orthogonalLoop=1;jettySize=auto;html=1;exitX=0;exitY=0.5;exitDx=0;exitDy=0;entryX=0.5;entryY=0;entryDx=0;entryDy=0;" edge="1" parent="1" source="Rn2rzYz6gc9uE2lievjr-6" target="Rn2rzYz6gc9uE2lievjr-12">
          <mxGeometry relative="1" as="geometry" />
        </mxCell>
        <mxCell id="Rn2rzYz6gc9uE2lievjr-6" value="12&lt;span style=&quot;color: rgba(0, 0, 0, 0); font-family: monospace; font-size: 0px; text-align: start; text-wrap: nowrap;&quot;&gt;%3CmxGraphModel%3E%3Croot%3E%3CmxCell%20id%3D%220%22%2F%3E%3CmxCell%20id%3D%221%22%20parent%3D%220%22%2F%3E%3CmxCell%20id%3D%222%22%20value%3D%22%22%20style%3D%22rounded%3D1%3BwhiteSpace%3Dwrap%3Bhtml%3D1%3B%22%20vertex%3D%221%22%20parent%3D%221%22%3E%3CmxGeometry%20x%3D%22380%22%20y%3D%22120%22%20width%3D%2260%22%20height%3D%2260%22%20as%3D%22geometry%22%2F%3E%3C%2FmxCell%3E%3CmxCell%20id%3D%223%22%20value%3D%2218%22%20style%3D%22text%3Bhtml%3D1%3Balign%3Dcenter%3BverticalAlign%3Dmiddle%3BwhiteSpace%3Dwrap%3Brounded%3D0%3B%22%20vertex%3D%221%22%20parent%3D%221%22%3E%3CmxGeometry%20x%3D%22380%22%20y%3D%22135%22%20width%3D%2260%22%20height%3D%2230%22%20as%3D%22geometry%22%2F%3E%3C%2FmxCell%3E%3C%2Froot%3E%3C%2FmxGraphModel%3E&lt;/span&gt;" style="text;html=1;align=center;verticalAlign=middle;whiteSpace=wrap;rounded=0;" vertex="1" parent="1">
          <mxGeometry x="384" y="215" width="60" height="30" as="geometry" />
        </mxCell>
        <mxCell id="Rn2rzYz6gc9uE2lievjr-7" value="" style="rounded=1;whiteSpace=wrap;html=1;" vertex="1" parent="1">
          <mxGeometry x="190" y="200" width="60" height="60" as="geometry" />
        </mxCell>
        <mxCell id="Rn2rzYz6gc9uE2lievjr-8" value="2" style="text;html=1;align=center;verticalAlign=middle;whiteSpace=wrap;rounded=0;" vertex="1" parent="1">
          <mxGeometry x="190" y="215" width="60" height="30" as="geometry" />
        </mxCell>
        <mxCell id="Rn2rzYz6gc9uE2lievjr-10" value="" style="rounded=1;whiteSpace=wrap;html=1;" vertex="1" parent="1">
          <mxGeometry x="490" y="290" width="60" height="60" as="geometry" />
        </mxCell>
        <mxCell id="Rn2rzYz6gc9uE2lievjr-11" value="16" style="text;html=1;align=center;verticalAlign=middle;whiteSpace=wrap;rounded=0;" vertex="1" parent="1">
          <mxGeometry x="490" y="305" width="60" height="30" as="geometry" />
        </mxCell>
        <mxCell id="Rn2rzYz6gc9uE2lievjr-12" value="" style="rounded=1;whiteSpace=wrap;html=1;" vertex="1" parent="1">
          <mxGeometry x="300" y="290" width="60" height="60" as="geometry" />
        </mxCell>
        <mxCell id="Rn2rzYz6gc9uE2lievjr-23" style="edgeStyle=orthogonalEdgeStyle;rounded=0;orthogonalLoop=1;jettySize=auto;html=1;exitX=1;exitY=0.5;exitDx=0;exitDy=0;entryX=0.5;entryY=0;entryDx=0;entryDy=0;" edge="1" parent="1" target="Rn2rzYz6gc9uE2lievjr-15">
          <mxGeometry relative="1" as="geometry">
            <mxPoint x="360" y="300" as="sourcePoint" />
          </mxGeometry>
        </mxCell>
        <mxCell id="Rn2rzYz6gc9uE2lievjr-24" style="edgeStyle=orthogonalEdgeStyle;rounded=0;orthogonalLoop=1;jettySize=auto;html=1;exitX=0;exitY=0.5;exitDx=0;exitDy=0;entryX=0.5;entryY=0;entryDx=0;entryDy=0;" edge="1" parent="1" target="Rn2rzYz6gc9uE2lievjr-16">
          <mxGeometry relative="1" as="geometry">
            <mxPoint x="300" y="300" as="sourcePoint" />
          </mxGeometry>
        </mxCell>
        <mxCell id="Rn2rzYz6gc9uE2lievjr-13" value="10" style="text;html=1;align=center;verticalAlign=middle;whiteSpace=wrap;rounded=0;" vertex="1" parent="1">
          <mxGeometry x="300" y="305" width="60" height="30" as="geometry" />
        </mxCell>
        <mxCell id="Rn2rzYz6gc9uE2lievjr-14" value="" style="rounded=1;whiteSpace=wrap;html=1;" vertex="1" parent="1">
          <mxGeometry x="400" y="370" width="60" height="60" as="geometry" />
        </mxCell>
        <mxCell id="Rn2rzYz6gc9uE2lievjr-15" value="11" style="text;html=1;align=center;verticalAlign=middle;whiteSpace=wrap;rounded=0;" vertex="1" parent="1">
          <mxGeometry x="400" y="385" width="60" height="30" as="geometry" />
        </mxCell>
        <mxCell id="Rn2rzYz6gc9uE2lievjr-16" value="" style="rounded=1;whiteSpace=wrap;html=1;" vertex="1" parent="1">
          <mxGeometry x="190" y="370" width="60" height="60" as="geometry" />
        </mxCell>
        <mxCell id="Rn2rzYz6gc9uE2lievjr-17" value="9" style="text;html=1;align=center;verticalAlign=middle;whiteSpace=wrap;rounded=0;" vertex="1" parent="1">
          <mxGeometry x="190" y="385" width="60" height="30" as="geometry" />
        </mxCell>
        <mxCell id="Rn2rzYz6gc9uE2lievjr-25" value="&lt;span style=&quot;color: rgb(45, 45, 45); font-family: &amp;quot;Century Gothic&amp;quot;, Arial, Helvetica, sans-serif; font-size: 15px; text-align: left; background-color: rgb(255, 255, 255);&quot;&gt;Remover os nós:&amp;nbsp;&lt;/span&gt;&lt;div&gt;&lt;span style=&quot;color: rgb(45, 45, 45); font-family: &amp;quot;Century Gothic&amp;quot;, Arial, Helvetica, sans-serif; text-align: left; background-color: rgb(255, 255, 255);&quot;&gt;&lt;b style=&quot;&quot;&gt;&lt;font style=&quot;font-size: 18px;&quot;&gt;2, 18, 8&amp;nbsp;&lt;/font&gt;&lt;/b&gt;&lt;/span&gt;&lt;/div&gt;" style="text;html=1;align=center;verticalAlign=middle;whiteSpace=wrap;rounded=0;" vertex="1" parent="1">
          <mxGeometry x="10" y="35" width="150" height="120" as="geometry" />
        </mxCell>
      </root>
    </mxGraphModel>
  </diagram>
</mxfile>
